HIERARCHY
ROOT mixamorig:Hips
{
	OFFSET -0.000008 104.274872 1.554316
	CHANNELS 6 Xposition Yposition Zposition Xrotation Yrotation Zrotation
	JOINT mixamorig:Spine
	{
		OFFSET -0.000005 10.181595 0.131519
		CHANNELS 6 Xposition Yposition Zposition Xrotation Yrotation Zrotation
		JOINT mixamorig:Spine1
		{
			OFFSET -0.000000 9.893959 -1.470707
			CHANNELS 6 Xposition Yposition Zposition Xrotation Yrotation Zrotation
			JOINT mixamorig:Spine2
			{
				OFFSET -0.000000 9.220757 -1.370641
				CHANNELS 6 Xposition Yposition Zposition Xrotation Yrotation Zrotation
				JOINT mixamorig:Neck
				{
					OFFSET 0.000001 16.740417 -2.049036
					CHANNELS 6 Xposition Yposition Zposition Xrotation Yrotation Zrotation
					JOINT mixamorig:Head
					{
						OFFSET 0.000000 9.617874 1.685006
						CHANNELS 6 Xposition Yposition Zposition Xrotation Yrotation Zrotation
						JOINT mixamorig:HeadTop_End
						{
							OFFSET 0.000002 22.037354 7.501101
							CHANNELS 6 Xposition Yposition Zposition Xrotation Yrotation Zrotation
							End Site
							{
								OFFSET 0.000168 2310.654297 -282.823242
							}
						}
					}
				}
				JOINT mixamorig:RightShoulder
				{
					OFFSET -4.569970 11.014908 -2.160885
					CHANNELS 6 Xposition Yposition Zposition Xrotation Yrotation Zrotation
					JOINT mixamorig:RightArm
					{
						OFFSET -10.592851 -0.524811 -2.232101
						CHANNELS 6 Xposition Yposition Zposition Xrotation Yrotation Zrotation
						JOINT mixamorig:RightForeArm
						{
							OFFSET -27.841511 0.000031 -0.000004
							CHANNELS 6 Xposition Yposition Zposition Xrotation Yrotation Zrotation
							JOINT mixamorig:RightHand
							{
								OFFSET -28.328831 -0.000015 0.000015
								CHANNELS 6 Xposition Yposition Zposition Xrotation Yrotation Zrotation
								JOINT mixamorig:RightHandThumb1
								{
									OFFSET -2.464806 -1.573990 2.681852
									CHANNELS 6 Xposition Yposition Zposition Xrotation Yrotation Zrotation
									JOINT mixamorig:RightHandThumb2
									{
										OFFSET -3.215179 -1.872803 1.924282
										CHANNELS 6 Xposition Yposition Zposition Xrotation Yrotation Zrotation
										JOINT mixamorig:RightHandThumb3
										{
											OFFSET -2.654831 -1.527969 1.512609
											CHANNELS 6 Xposition Yposition Zposition Xrotation Yrotation Zrotation
											JOINT mixamorig:RightHandThumb4
											{
												OFFSET -2.018814 -1.152008 1.108052
												CHANNELS 6 Xposition Yposition Zposition Xrotation Yrotation Zrotation
												End Site
												{
													OFFSET -188.809540 -114.533607 132.431396
												}
											}
										}
									}
								}
								JOINT mixamorig:RightHandIndex1
								{
									OFFSET -9.108284 -0.517868 2.259835
									CHANNELS 6 Xposition Yposition Zposition Xrotation Yrotation Zrotation
									JOINT mixamorig:RightHandIndex2
									{
										OFFSET -3.699989 0.000000 0.001215
										CHANNELS 6 Xposition Yposition Zposition Xrotation Yrotation Zrotation
										JOINT mixamorig:RightHandIndex3
										{
											OFFSET -2.850006 0.000031 -0.000522
											CHANNELS 6 Xposition Yposition Zposition Xrotation Yrotation Zrotation
											JOINT mixamorig:RightHandIndex4
											{
												OFFSET -2.772186 -0.000015 -0.000020
												CHANNELS 6 Xposition Yposition Zposition Xrotation Yrotation Zrotation
												End Site
												{
													OFFSET -277.218445 0.000000 -0.050231
												}
											}
										}
									}
								}
								JOINT mixamorig:RightHandMiddle1
								{
									OFFSET -9.532516 -0.000031 -0.000023
									CHANNELS 6 Xposition Yposition Zposition Xrotation Yrotation Zrotation
									JOINT mixamorig:RightHandMiddle2
									{
										OFFSET -3.700005 -0.000015 0.003713
										CHANNELS 6 Xposition Yposition Zposition Xrotation Yrotation Zrotation
										JOINT mixamorig:RightHandMiddle3
										{
											OFFSET -2.949974 0.000015 -0.002054
											CHANNELS 6 Xposition Yposition Zposition Xrotation Yrotation Zrotation
											JOINT mixamorig:RightHandMiddle4
											{
												OFFSET -2.946640 0.000000 -0.000156
												CHANNELS 6 Xposition Yposition Zposition Xrotation Yrotation Zrotation
												End Site
												{
													OFFSET -294.664337 0.000000 -0.113670
												}
											}
										}
									}
								}
								JOINT mixamorig:RightHandRing1
								{
									OFFSET -9.103600 -0.043076 -1.865134
									CHANNELS 6 Xposition Yposition Zposition Xrotation Yrotation Zrotation
									JOINT mixamorig:RightHandRing2
									{
										OFFSET -3.379288 0.000000 -0.001055
										CHANNELS 6 Xposition Yposition Zposition Xrotation Yrotation Zrotation
										JOINT mixamorig:RightHandRing3
										{
											OFFSET -2.889687 -0.000015 0.000379
											CHANNELS 6 Xposition Yposition Zposition Xrotation Yrotation Zrotation
											JOINT mixamorig:RightHandRing4
											{
												OFFSET -2.638809 -0.000015 0.000941
												CHANNELS 6 Xposition Yposition Zposition Xrotation Yrotation Zrotation
												End Site
												{
													OFFSET -263.880371 0.000000 0.516020
												}
											}
										}
									}
								}
								JOINT mixamorig:RightHandPinky1
								{
									OFFSET -8.076683 -0.486710 -3.806280
									CHANNELS 6 Xposition Yposition Zposition Xrotation Yrotation Zrotation
									JOINT mixamorig:RightHandPinky2
									{
										OFFSET -3.600014 -0.000015 -0.003747
										CHANNELS 6 Xposition Yposition Zposition Xrotation Yrotation Zrotation
										JOINT mixamorig:RightHandPinky3
										{
											OFFSET -2.099983 0.000000 -0.005739
											CHANNELS 6 Xposition Yposition Zposition Xrotation Yrotation Zrotation
											JOINT mixamorig:RightHandPinky4
											{
												OFFSET -2.115768 -0.000031 -0.003680
												CHANNELS 6 Xposition Yposition Zposition Xrotation Yrotation Zrotation
												End Site
												{
													OFFSET -211.577087 0.000000 -0.350686
												}
											}
										}
									}
								}
							}
						}
					}
				}
				JOINT mixamorig:LeftShoulder
				{
					OFFSET 4.570447 11.014725 -2.160855
					CHANNELS 6 Xposition Yposition Zposition Xrotation Yrotation Zrotation
					JOINT mixamorig:LeftArm
					{
						OFFSET 10.592371 -0.524597 -2.232119
						CHANNELS 6 Xposition Yposition Zposition Xrotation Yrotation Zrotation
						JOINT mixamorig:LeftForeArm
						{
							OFFSET 27.841532 -0.000031 0.000026
							CHANNELS 6 Xposition Yposition Zposition Xrotation Yrotation Zrotation
							JOINT mixamorig:LeftHand
							{
								OFFSET 28.328846 -0.000061 0.000022
								CHANNELS 6 Xposition Yposition Zposition Xrotation Yrotation Zrotation
								JOINT mixamorig:LeftHandThumb1
								{
									OFFSET 2.466141 -1.576172 2.681732
									CHANNELS 6 Xposition Yposition Zposition Xrotation Yrotation Zrotation
									JOINT mixamorig:LeftHandThumb2
									{
										OFFSET 3.217812 -1.872070 1.916482
										CHANNELS 6 Xposition Yposition Zposition Xrotation Yrotation Zrotation
										JOINT mixamorig:LeftHandThumb3
										{
											OFFSET 2.656029 -1.528778 1.514513
											CHANNELS 6 Xposition Yposition Zposition Xrotation Yrotation Zrotation
											JOINT mixamorig:LeftHandThumb4
											{
												OFFSET 2.020889 -1.154053 1.115139
												CHANNELS 6 Xposition Yposition Zposition Xrotation Yrotation Zrotation
												End Site
												{
													OFFSET 190.885437 -115.081749 130.048782
												}
											}
										}
									}
								}
								JOINT mixamorig:LeftHandIndex1
								{
									OFFSET 9.109314 -0.518021 2.259871
									CHANNELS 6 Xposition Yposition Zposition Xrotation Yrotation Zrotation
									JOINT mixamorig:LeftHandIndex2
									{
										OFFSET 3.699989 0.000000 -0.000322
										CHANNELS 6 Xposition Yposition Zposition Xrotation Yrotation Zrotation
										JOINT mixamorig:LeftHandIndex3
										{
											OFFSET 2.850006 0.000000 0.000352
											CHANNELS 6 Xposition Yposition Zposition Xrotation Yrotation Zrotation
											JOINT mixamorig:LeftHandIndex4
											{
												OFFSET 2.774864 -0.000031 -0.000027
												CHANNELS 6 Xposition Yposition Zposition Xrotation Yrotation Zrotation
												End Site
												{
													OFFSET 277.486267 0.000000 -0.009857
												}
											}
										}
									}
								}
								JOINT mixamorig:LeftHandMiddle1
								{
									OFFSET 9.533394 0.000061 0.000044
									CHANNELS 6 Xposition Yposition Zposition Xrotation Yrotation Zrotation
									JOINT mixamorig:LeftHandMiddle2
									{
										OFFSET 3.699989 -0.000015 -0.000231
										CHANNELS 6 Xposition Yposition Zposition Xrotation Yrotation Zrotation
										JOINT mixamorig:LeftHandMiddle3
										{
											OFFSET 2.949997 -0.000015 -0.000059
											CHANNELS 6 Xposition Yposition Zposition Xrotation Yrotation Zrotation
											JOINT mixamorig:LeftHandMiddle4
											{
												OFFSET 2.952896 0.000031 0.000063
												CHANNELS 6 Xposition Yposition Zposition Xrotation Yrotation Zrotation
												End Site
												{
													OFFSET 295.289337 0.000000 0.022810
												}
											}
										}
									}
								}
								JOINT mixamorig:LeftHandRing1
								{
									OFFSET 9.104523 -0.042999 -1.865074
									CHANNELS 6 Xposition Yposition Zposition Xrotation Yrotation Zrotation
									JOINT mixamorig:LeftHandRing2
									{
										OFFSET 3.150009 -0.000031 0.000043
										CHANNELS 6 Xposition Yposition Zposition Xrotation Yrotation Zrotation
										JOINT mixamorig:LeftHandRing3
										{
											OFFSET 2.949982 -0.000015 0.000040
											CHANNELS 6 Xposition Yposition Zposition Xrotation Yrotation Zrotation
											JOINT mixamorig:LeftHandRing4
											{
												OFFSET 2.644348 0.000000 0.000057
												CHANNELS 6 Xposition Yposition Zposition Xrotation Yrotation Zrotation
												End Site
												{
													OFFSET 264.434631 0.000000 0.012105
												}
											}
										}
									}
								}
								JOINT mixamorig:LeftHandPinky1
								{
									OFFSET 8.077789 -0.486847 -3.806259
									CHANNELS 6 Xposition Yposition Zposition Xrotation Yrotation Zrotation
									JOINT mixamorig:LeftHandPinky2
									{
										OFFSET 3.599953 0.000031 0.014727
										CHANNELS 6 Xposition Yposition Zposition Xrotation Yrotation Zrotation
										JOINT mixamorig:LeftHandPinky3
										{
											OFFSET 2.100021 0.000015 0.007705
											CHANNELS 6 Xposition Yposition Zposition Xrotation Yrotation Zrotation
											JOINT mixamorig:LeftHandPinky4
											{
												OFFSET 2.125504 0.000031 0.007517
												CHANNELS 6 Xposition Yposition Zposition Xrotation Yrotation Zrotation
												End Site
												{
													OFFSET 212.550781 0.000000 0.625752
												}
											}
										}
									}
								}
							}
						}
					}
				}
			}
		}
	}
	JOINT mixamorig:RightUpLeg
	{
		OFFSET -8.207787 -6.751648 -1.599560
		CHANNELS 6 Xposition Yposition Zposition Xrotation Yrotation Zrotation
		JOINT mixamorig:RightLeg
		{
			OFFSET -0.000002 -44.370117 0.345942
			CHANNELS 6 Xposition Yposition Zposition Xrotation Yrotation Zrotation
			JOINT mixamorig:RightFoot
			{
				OFFSET 0.000003 -44.423679 -3.043532
				CHANNELS 6 Xposition Yposition Zposition Xrotation Yrotation Zrotation
				JOINT mixamorig:RightToeBase
				{
					OFFSET -0.000002 -8.728671 10.710558
					CHANNELS 6 Xposition Yposition Zposition Xrotation Yrotation Zrotation
					JOINT mixamorig:RightToe_End
					{
						OFFSET -0.000001 -0.000679 9.278119
						CHANNELS 6 Xposition Yposition Zposition Xrotation Yrotation Zrotation
						End Site
						{
							OFFSET 0.000000 -0.067690 927.812134
						}
					}
				}
			}
		}
	}
	JOINT mixamorig:LeftUpLeg
	{
		OFFSET 8.207793 -6.751686 -1.599556
		CHANNELS 6 Xposition Yposition Zposition Xrotation Yrotation Zrotation
		JOINT mixamorig:LeftLeg
		{
			OFFSET -0.000004 -44.370014 0.346954
			CHANNELS 6 Xposition Yposition Zposition Xrotation Yrotation Zrotation
			JOINT mixamorig:LeftFoot
			{
				OFFSET -0.000001 -44.423672 -3.044401
				CHANNELS 6 Xposition Yposition Zposition Xrotation Yrotation Zrotation
				JOINT mixamorig:LeftToeBase
				{
					OFFSET -0.000002 -8.728669 10.710558
					CHANNELS 6 Xposition Yposition Zposition Xrotation Yrotation Zrotation
					JOINT mixamorig:LeftToe_End
					{
						OFFSET -0.000003 -0.000679 9.278133
						CHANNELS 6 Xposition Yposition Zposition Xrotation Yrotation Zrotation
						End Site
						{
							OFFSET 0.000000 -0.068021 927.813477
						}
					}
				}
			}
		}
	}
}
MOTION
Frames: 3
Frame Time: 0.033333
0.000006 104.270477 1.554256 0.000010 0.000003 -0.000113 -0.000005 10.181587 0.131522 0.000001 -0.000003 0.000084 -0.000000 9.893967 -1.470711 0.000001 0.000000 -0.000000 -0.000000 9.220802 -1.370642 0.000000 -0.000000 -0.000000 0.000001 16.740433 -2.049030 0.000000 -0.000000 -0.000000 0.000000 9.617859 1.685014 0.000000 0.000000 0.000000 0.000002 22.037384 7.501101 0.000000 -0.000000 0.000000 -4.569968 11.014880 -2.160881 0.000008 0.000001 -0.000038 -10.592805 -0.524839 -2.231769 65.564113 61.194260 -41.696147 -27.841501 0.000016 0.000571 45.594252 101.829876 -54.719278 -28.328836 0.000008 0.000013 -0.000318 -0.000043 0.000007 -2.464507 -1.574172 2.682188 57.010131 -126.573678 113.154112 -3.214886 -1.873010 1.924644 219.854705 -45.501528 -78.739022 -2.654542 -1.528218 1.513036 32.982181 -139.257927 96.581095 -2.018818 -1.151985 1.108062 -0.000003 -0.000005 -0.000001 -9.108188 -0.517743 2.260438 203.890982 26.076414 -264.845339 -3.699749 0.000117 0.001825 186.295991 18.156507 -217.905438 -2.849867 -0.000023 0.000063 175.361774 12.137966 -498.286779 -2.772178 -0.000017 -0.000030 0.000002 0.000003 -0.000000 -9.532434 -0.000081 0.000560 171.165497 15.800167 237.229901 -3.700016 0.000303 0.004205 147.681654 1.790939 -5.885573 -2.949982 0.000370 -0.001689 124.798006 0.336856 -0.632751 -2.946615 -0.000015 -0.000161 -0.000002 0.000001 0.000002 -9.103595 -0.043077 -1.864565 168.582579 11.408506 -89.597431 -3.378832 0.000229 -0.000932 108.601975 -62.085900 79.909347 -2.889512 0.000030 0.000322 3.414197 -35.610349 1.108858 -2.638817 -0.000003 0.000945 -0.000002 -0.000000 0.000000 -8.076671 -0.486658 -3.805712 173.577687 4.644191 -69.298710 -3.599640 -0.000177 -0.003629 111.215492 -110.440245 128.797178 -2.099841 -0.000103 -0.005788 -19.524849 -26.178034 -4.661935 -2.115764 -0.000051 -0.003674 -0.000000 0.000000 -0.000005 4.570446 11.014691 -2.160851 -0.000018 0.000010 -0.000021 10.592510 -0.524535 -2.232396 64.157067 -61.413386 40.835877 27.841764 -0.000041 -0.000125 229.766416 -81.121925 236.907024 28.328842 -0.000016 0.000027 0.000019 -0.000090 -0.000001 2.466142 -1.576154 2.681880 63.327854 127.911070 -118.882325 3.217797 -1.872029 1.916546 220.718574 48.100016 79.627711 2.655984 -1.528797 1.514619 203.288997 41.796936 93.768081 2.020891 -1.154084 1.115133 0.000002 0.000002 0.000002 9.109119 -0.517883 2.260064 221.386280 -42.996085 267.599080 3.699859 -0.000050 -0.000218 179.668427 -27.566555 178.706367 2.850143 0.000150 0.000372 158.612907 -17.525733 78.442530 2.774887 -0.000028 -0.000025 0.000001 0.000000 0.000000 9.533507 0.000145 0.000072 164.255490 -15.736377 89.918259 3.700117 0.000244 -0.000271 143.295552 -12.449796 36.393922 2.950122 0.000209 -0.000141 120.819940 -20.956588 36.086096 2.952868 -0.000028 0.000058 0.000000 -0.000002 0.000002 9.104654 -0.042934 -1.865049 166.445522 -16.419860 101.056412 3.149669 0.000254 -0.000062 150.949626 34.742054 -100.736862 2.949940 -0.000008 0.000008 -20.711104 33.693193 6.333447 2.644319 0.000034 0.000056 0.000000 -0.000001 0.000002 8.077867 -0.486828 -3.806212 171.000056 -13.933517 118.845087 3.599962 0.000012 0.014795 19.890991 149.759110 -67.759547 2.100002 -0.000001 0.007757 -35.090507 26.874634 8.413868 2.125518 -0.000025 0.007507 0.000003 0.000004 0.000000 -8.207786 -6.751667 -1.599560 -0.077001 -0.000003 0.000080 -0.000002 -44.370110 0.345938 0.153719 -0.000000 -0.000000 0.000000 -44.423679 -3.043532 -0.076700 0.000000 -0.000002 -0.000006 -8.728667 10.710559 -0.000009 -0.000000 -0.000000 -0.000001 -0.000679 9.278123 0.000000 -0.000000 -0.000000 8.207792 -6.751710 -1.599556 -0.074518 -0.000003 0.000081 -0.000002 -44.370014 0.346960 0.148822 0.000002 0.000000 -0.000001 -44.423664 -3.044403 -0.074314 0.000000 -0.000002 -0.000004 -8.728671 10.710558 0.000007 -0.000000 -0.000000 0.000000 -0.000680 9.278137 -0.000000 0.000000 -0.000001 
0.000006 104.270477 1.554256 0.000010 0.000003 -0.000113 -0.000005 10.181587 0.131522 0.000001 -0.000003 0.000084 -0.000000 9.893967 -1.470711 0.000001 0.000000 -0.000000 -0.000000 9.220802 -1.370642 0.000000 -0.000000 -0.000000 0.000001 16.740433 -2.049030 0.000000 -0.000000 -0.000000 0.000000 9.617859 1.685014 0.000000 0.000000 0.000000 0.000002 22.037384 7.501101 0.000000 -0.000000 0.000000 -4.569968 11.014880 -2.160881 0.000008 0.000001 -0.000038 -10.592811 -0.524835 -2.231770 66.521719 60.505914 -41.869203 -27.841501 0.000000 0.000579 47.070177 101.688840 -56.282149 -28.328835 0.000021 0.000011 -0.000322 -0.000044 0.000006 -2.464525 -1.574190 2.682206 57.241725 -129.190788 114.788678 -3.214867 -1.872995 1.924658 217.197570 -46.608559 -81.950167 -2.654537 -1.528198 1.513063 26.697678 -137.558603 89.041324 -2.018819 -1.151999 1.108048 -0.000003 -0.000006 0.000002 -9.108212 -0.517766 2.260437 207.261735 26.722128 -271.196185 -3.699718 0.000083 0.001818 183.472036 18.899904 -200.537865 -2.849963 -0.000007 0.000046 170.571462 12.822256 -467.441208 -2.772151 -0.000016 -0.000011 0.000004 0.000003 0.000001 -9.532400 -0.000064 0.000560 172.253013 16.429909 229.300324 -3.700044 0.000239 0.004206 151.809656 5.654308 -21.884756 -2.950060 0.000301 -0.001611 132.404296 9.848798 -22.093027 -2.946620 0.000017 -0.000158 -0.000000 -0.000002 0.000001 -9.103575 -0.043089 -1.864556 169.486937 11.812187 -96.338507 -3.378879 0.000272 -0.000896 109.770156 -53.733245 71.543814 -2.889577 0.000011 0.000340 -1.908431 -23.305423 -0.384522 -2.638821 -0.000018 0.000930 0.000002 -0.000000 -0.000001 -8.076660 -0.486672 -3.805717 172.353472 5.352796 -67.897285 -3.599663 -0.000177 -0.003668 133.031540 -117.592990 150.220435 -2.099897 -0.000103 -0.005763 -17.635255 -15.829173 -2.529773 -2.115761 -0.000039 -0.003688 0.000003 -0.000002 -0.000003 4.570446 11.014691 -2.160851 -0.000018 0.000010 -0.000021 10.592516 -0.524527 -2.232395 64.544092 -61.197327 40.955699 27.841755 -0.000066 -0.000125 231.305722 -80.952556 238.739700 28.328831 -0.000012 0.000022 0.000019 -0.000089 0.000000 2.466144 -1.576158 2.681882 60.883978 124.833414 -115.283088 3.217775 -1.872026 1.916546 220.843034 49.025892 80.118754 2.656018 -1.528800 1.514611 208.820507 42.472114 88.527195 2.020884 -1.154076 1.115148 -0.000001 0.000001 -0.000001 9.109100 -0.517863 2.260073 214.976051 -37.823870 265.199716 3.699865 -0.000044 -0.000232 178.635647 -24.437406 173.773755 2.850133 0.000135 0.000374 162.386668 -17.188292 88.571591 2.774877 -0.000033 -0.000037 0.000001 -0.000001 -0.000002 9.533524 0.000196 0.000082 163.759591 -13.709481 80.175650 3.700095 0.000297 -0.000259 149.886220 -8.726333 31.659320 2.950116 0.000240 -0.000120 136.754703 -16.350985 39.852668 2.952867 -0.000002 0.000063 0.000001 -0.000004 -0.000000 9.104671 -0.042913 -1.865045 167.639070 -14.104514 97.618798 3.149665 0.000314 -0.000028 158.457657 23.344232 -94.717607 2.949949 0.000009 -0.000004 -21.276167 36.971490 7.185687 2.644317 0.000033 0.000056 0.000000 0.000001 0.000000 8.077893 -0.486778 -3.806207 169.626491 -11.891006 102.620396 3.599963 -0.000007 0.014790 13.160617 155.515170 -58.307754 2.100008 0.000010 0.007800 -44.001305 24.343834 9.705771 2.125507 -0.000001 0.007505 0.000000 -0.000000 -0.000001 -8.207786 -6.751667 -1.599560 -0.077001 -0.000003 0.000080 -0.000002 -44.370110 0.345938 0.153719 -0.000000 -0.000000 0.000000 -44.423679 -3.043532 -0.076700 0.000000 -0.000002 -0.000006 -8.728667 10.710559 -0.000009 -0.000000 -0.000000 -0.000001 -0.000679 9.278123 0.000000 -0.000000 -0.000000 8.207792 -6.751710 -1.599556 -0.074518 -0.000003 0.000081 -0.000002 -44.370014 0.346960 0.148822 0.000002 0.000000 -0.000001 -44.423664 -3.044403 -0.074314 0.000000 -0.000002 -0.000004 -8.728671 10.710558 0.000007 -0.000000 -0.000000 0.000000 -0.000680 9.278137 -0.000000 0.000000 -0.000001 
0.000006 104.270477 1.554256 0.000010 0.000003 -0.000113 -0.000005 10.181587 0.131522 0.000001 -0.000003 0.000084 -0.000000 9.893967 -1.470711 0.000001 0.000000 -0.000000 -0.000000 9.220802 -1.370642 0.000000 -0.000000 -0.000000 0.000001 16.740433 -2.049030 0.000000 -0.000000 -0.000000 0.000000 9.617859 1.685014 0.000000 0.000000 0.000000 0.000002 22.037384 7.501101 0.000000 -0.000000 0.000000 -4.569968 11.014880 -2.160881 0.000008 0.000001 -0.000038 -10.592813 -0.524840 -2.231771 66.794134 60.208370 -41.838737 -27.841505 0.000000 0.000578 46.292577 101.247132 -55.027621 -28.328831 0.000023 0.000016 -0.000320 -0.000046 0.000008 -2.464509 -1.574201 2.682202 55.335266 -126.347640 111.617777 -3.214854 -1.872989 1.924647 218.567556 -47.593875 -81.327431 -2.654544 -1.528209 1.513051 28.421952 -136.942998 90.362433 -2.018842 -1.151995 1.108061 -0.000004 -0.000002 0.000005 -9.108197 -0.517753 2.260434 204.282475 25.055987 -268.157789 -3.699725 0.000021 0.001819 180.236521 16.531503 -181.485366 -2.850009 0.000018 0.000041 167.736619 10.347446 -440.242739 -2.772172 -0.000015 -0.000017 -0.000004 0.000004 0.000001 -9.532477 -0.000061 0.000542 167.545374 14.315301 261.002511 -3.700031 0.000225 0.004230 156.709934 2.787376 -13.038170 -2.950043 0.000289 -0.001575 146.143727 4.804717 -15.674381 -2.946611 0.000007 -0.000155 0.000000 0.000001 -0.000005 -9.103629 -0.043061 -1.864574 166.621946 10.843420 -77.631015 -3.378807 0.000217 -0.000619 164.765760 -26.935693 121.664083 -2.889400 -0.000044 0.000352 -17.700932 -55.512308 -9.342736 -2.638805 -0.000019 0.000928 0.000001 0.000001 -0.000002 -8.076691 -0.486623 -3.805726 169.912977 4.106042 -42.572415 -3.599659 -0.000221 -0.003368 33.680295 -136.401255 73.377330 -2.099856 -0.000207 -0.005715 -41.907507 -25.732154 -10.121675 -2.115775 -0.000060 -0.003676 -0.000000 0.000000 -0.000004 4.570446 11.014691 -2.160851 -0.000018 0.000010 -0.000021 10.592510 -0.524529 -2.232398 64.809903 -60.879423 40.910306 27.841764 -0.000066 -0.000127 230.292669 -81.312166 237.321971 28.328840 -0.000014 0.000025 0.000020 -0.000090 -0.000000 2.466145 -1.576159 2.681876 59.193179 123.734478 -113.279036 3.217772 -1.872034 1.916539 217.185918 49.160690 83.636158 2.656016 -1.528803 1.514610 205.580580 41.191836 90.903746 2.020892 -1.154053 1.115148 0.000004 0.000001 -0.000004 9.109117 -0.517952 2.260022 198.165822 -39.324841 228.194435 3.699873 -0.000024 -0.000226 179.125386 -27.284244 176.457063 2.850099 0.000089 0.000368 162.358665 -19.595902 96.109252 2.774899 -0.000047 -0.000030 0.000004 -0.000001 -0.000002 9.533545 0.000244 0.000063 159.751322 -13.499367 67.025835 3.700150 0.000207 -0.000239 153.532476 -13.398939 53.071185 2.950080 0.000039 -0.000011 154.225794 -33.368442 105.294784 2.952871 -0.000015 0.000065 -0.000001 0.000002 0.000001 9.104683 -0.042877 -1.865049 163.641456 -13.815667 80.266580 3.149786 0.000010 -0.000036 186.407242 62.043362 -190.637451 2.949981 -0.000003 0.000086 -34.313081 22.644427 7.073474 2.644310 0.000031 0.000059 -0.000000 -0.000001 0.000003 8.077950 -0.486706 -3.806221 166.359421 -11.466080 84.272602 3.600022 0.000051 0.014829 55.069063 141.420774 -113.214299 2.100013 0.000017 0.007821 -44.107538 17.462615 6.888939 2.125502 -0.000013 0.007515 0.000000 -0.000000 0.000001 -8.207786 -6.751667 -1.599560 -0.077001 -0.000003 0.000080 -0.000002 -44.370110 0.345938 0.153719 -0.000000 -0.000000 0.000000 -44.423679 -3.043532 -0.076700 0.000000 -0.000002 -0.000006 -8.728667 10.710559 -0.000009 -0.000000 -0.000000 -0.000001 -0.000679 9.278123 0.000000 -0.000000 -0.000000 8.207792 -6.751710 -1.599556 -0.074518 -0.000003 0.000081 -0.000002 -44.370014 0.346960 0.148822 0.000002 0.000000 -0.000001 -44.423664 -3.044403 -0.074314 0.000000 -0.000002 -0.000004 -8.728671 10.710558 0.000007 -0.000000 -0.000000 0.000000 -0.000680 9.278137 -0.000000 0.000000 -0.000001 
